<svg width="24" height="24" viewBox="0 0 24 24" fill="none" xmlns="http://www.w3.org/2000/svg">
<rect width="23.9498" height="23.9498" rx="4" fill="#8C9EFF"/>
<g clip-path="url(#clip0_744_8440)">
<path d="M15.9968 9.00199C15.9968 9.00199 14.8513 8.10561 13.4985 8.00269L13.3766 8.24652C14.5998 8.54581 15.1609 8.97476 15.747 9.50164C14.7364 8.98575 13.7386 8.50234 11.9996 8.50234C10.2605 8.50234 9.26274 8.98575 8.2522 9.50164C8.83829 8.97476 9.50582 8.49859 10.6225 8.24652L10.5006 8.00269C9.08137 8.13684 8.00237 9.00199 8.00237 9.00199C8.00237 9.00199 6.72301 10.8569 6.50342 14.4981C7.79302 15.9854 9.75115 15.9971 9.75115 15.9971L10.1606 15.4512C9.4656 15.2096 8.68065 14.7782 8.00237 13.9985C8.8113 14.6106 10.0322 15.2476 11.9996 15.2476C13.967 15.2476 15.1878 14.6106 15.9968 13.9985C15.3185 14.7782 14.5336 15.2096 13.8385 15.4512L14.248 15.9971C14.248 15.9971 16.2061 15.9854 17.4957 14.4981C17.2761 10.8569 15.9968 9.00199 15.9968 9.00199ZM10.3757 13.4988C9.8928 13.4988 9.50132 13.0514 9.50132 12.4995C9.50132 11.9477 9.8928 11.5002 10.3757 11.5002C10.8586 11.5002 11.2501 11.9477 11.2501 12.4995C11.2501 13.0514 10.8586 13.4988 10.3757 13.4988ZM13.6234 13.4988C13.1405 13.4988 12.7491 13.0514 12.7491 12.4995C12.7491 11.9477 13.1405 11.5002 13.6234 11.5002C14.1064 11.5002 14.4978 11.9477 14.4978 12.4995C14.4978 13.0514 14.1064 13.4988 13.6234 13.4988Z" fill="white"/>
</g>
<defs>
<clipPath id="clip0_744_8440">
<rect width="11.9916" height="11.9916" fill="white" transform="translate(6.00391 6.00415)"/>
</clipPath>
</defs>
</svg>
