<svg width="24" height="24" viewBox="0 0 24 24" fill="none" xmlns="http://www.w3.org/2000/svg">
<rect width="24" height="24" rx="4" fill="#395185"/>
<g clip-path="url(#clip0_744_8461)">
<path d="M15.9574 18.0005C16.3753 18.0005 16.7143 17.6616 16.7143 17.2436V5.04304C16.7143 4.62497 16.3753 4.28613 15.9574 4.28613H3.75691C3.33879 4.28613 3 4.62497 3 5.04304V17.2436C3 17.6616 3.33879 18.0005 3.75691 18.0005H15.9574Z" fill="#395185"/>
<path d="M12.4627 18.0007V12.6898H14.2454L14.5123 10.62H12.4627V9.29852C12.4627 8.69927 12.6291 8.2909 13.4885 8.2909L14.5845 8.29042V6.43926C14.3948 6.41402 13.7443 6.35767 12.9874 6.35767C11.4072 6.35767 10.3253 7.32222 10.3253 9.09361V10.62H8.53809V12.6898H10.3253V18.0007H12.4627Z" fill="white"/>
</g>
<defs>
<clipPath id="clip0_744_8461">
<rect width="13.7143" height="13.7143" fill="white" transform="translate(3 4.28613)"/>
</clipPath>
</defs>
</svg>
