<svg width="24" height="24" viewBox="0 0 24 24" fill="none" xmlns="http://www.w3.org/2000/svg">
<rect width="23.9163" height="23.9163" rx="4" fill="#1E88E5"/>
<path d="M15.6919 18.6799H8.22329C6.57609 18.6799 5.23584 17.3396 5.23584 15.6924V8.22378C5.23584 6.57657 6.57609 5.23633 8.22329 5.23633H15.6919C17.3391 5.23633 18.6794 6.57657 18.6794 8.22378V15.6924C18.6794 17.3396 17.3391 18.6799 15.6919 18.6799Z" fill="#1E88E5"/>
<path d="M16.4123 9.52661L13.9805 11.9584L16.4119 14.3898C16.4283 14.3286 16.4399 14.2655 16.4399 14.199V9.71781C16.4399 9.65134 16.4283 9.58823 16.4123 9.52661ZM12.9625 11.9207L15.8842 8.99858C15.8226 8.98252 15.7595 8.97095 15.693 8.97095H8.2244C8.15793 8.97095 8.09482 8.98252 8.03321 8.99858L10.9549 11.9207C11.5087 12.4737 12.4087 12.4737 12.9625 11.9207ZM11.9587 13.0821C11.421 13.0821 10.8858 12.8797 10.4687 12.4827L8.03321 14.9182C8.09482 14.9343 8.15793 14.9459 8.2244 14.9459H15.693C15.7595 14.9459 15.8226 14.9343 15.8842 14.9182L13.4487 12.4827C13.0316 12.8797 12.4965 13.0821 11.9587 13.0821ZM7.50517 9.52661C7.48912 9.58823 7.47754 9.65134 7.47754 9.71781V14.199C7.47754 14.2655 7.48912 14.3286 7.50517 14.3902L9.93696 11.9584L7.50517 9.52661Z" fill="white"/>
</svg>
