<svg width="24" height="24" viewBox="0 0 24 24" fill="none" xmlns="http://www.w3.org/2000/svg">
<rect width="24" height="24" rx="4" fill="#1F1F1F"/>
<g clip-path="url(#clip0_744_8468)">
<path d="M12.8788 11.9997C12.8788 14.1297 11.1474 15.8569 9.0105 15.8569C8.50329 15.8575 8.00092 15.7583 7.53207 15.5648C7.06322 15.3714 6.63706 15.0874 6.27794 14.7293C5.91882 14.3711 5.63375 13.9457 5.43903 13.4774C5.24431 13.009 5.14374 12.5069 5.14307 11.9997C5.14307 9.86887 6.8745 8.14258 9.0105 8.14258C9.51777 8.14179 10.0202 8.24094 10.4892 8.43437C10.9581 8.62779 11.3844 8.9117 11.7436 9.26988C12.1028 9.62806 12.388 10.0535 12.5827 10.5219C12.7775 10.9903 12.8781 11.4925 12.8788 11.9997ZM17.1216 11.9997C17.1216 14.0054 16.2559 15.6306 15.1879 15.6306C14.1199 15.6306 13.2542 14.0046 13.2542 11.9997C13.2542 9.99401 14.1199 8.36887 15.1879 8.36887C16.2559 8.36887 17.1216 9.99487 17.1216 11.9997ZM18.8574 11.9997C18.8574 13.7963 18.5531 15.2526 18.1768 15.2526C17.8014 15.2526 17.4971 13.7954 17.4971 11.9997C17.4971 10.2032 17.8014 8.74687 18.1776 8.74687C18.5531 8.74687 18.8574 10.2032 18.8574 11.9997Z" fill="white"/>
</g>
<defs>
<clipPath id="clip0_744_8468">
<rect width="13.7143" height="13.7143" fill="white" transform="translate(5.14307 5.14258)"/>
</clipPath>
</defs>
</svg>
