<svg width="24" height="24" viewBox="0 0 24 24" fill="none" xmlns="http://www.w3.org/2000/svg">
<rect width="24" height="24" rx="4" fill="#FF4500"/>
<path d="M12 24C18.6274 24 24 18.6274 24 12C24 5.37258 18.6274 0 12 0C5.37258 0 0 5.37258 0 12C0 18.6274 5.37258 24 12 24Z" fill="#FF4500"/>
<path d="M19.9827 12.1154C19.9827 11.1426 19.1961 10.37 18.2374 10.37C17.7845 10.3694 17.3489 10.5437 17.0214 10.8565C15.8197 9.99803 14.1744 9.44021 12.3433 9.36868L13.1443 5.62046L15.748 6.17828C15.7768 6.8364 16.3203 7.36581 16.9928 7.36581C17.6795 7.36581 18.2374 6.808 18.2374 6.121C18.2374 5.43437 17.6796 4.87646 16.9928 4.87646C16.5065 4.87646 16.0771 5.16259 15.8768 5.57753L12.9728 4.96234C12.887 4.9479 12.8011 4.96234 12.7438 5.00528C12.6723 5.04821 12.6294 5.11965 12.6153 5.20553L11.728 9.38284C9.86831 9.44021 8.1944 9.99803 6.97847 10.8708C6.65096 10.558 6.21531 10.3838 5.76243 10.3845C4.78959 10.3845 4.01709 11.1711 4.01709 12.1298C4.01709 12.845 4.44618 13.4458 5.04722 13.7178C5.01803 13.8928 5.00366 14.0698 5.00428 14.2472C5.00428 16.9365 8.1374 19.1255 12 19.1255C15.8627 19.1255 18.9958 16.9509 18.9958 14.2472C18.9957 14.0698 18.9813 13.8928 18.9529 13.7178C19.5536 13.4458 19.9827 12.8306 19.9827 12.1154ZM7.99415 13.3599C7.99415 12.6733 8.55197 12.1154 9.23897 12.1154C9.92559 12.1154 10.4835 12.6732 10.4835 13.3599C10.4835 14.0466 9.92568 14.6047 9.23897 14.6047C8.55206 14.6188 7.99415 14.0466 7.99415 13.3599ZM14.9614 16.6647C14.103 17.5232 12.472 17.5804 12 17.5804C11.5136 17.5804 9.88275 17.5087 9.03843 16.6647C8.9099 16.536 8.9099 16.3356 9.03843 16.2069C9.16725 16.0784 9.3675 16.0784 9.49631 16.2069C10.0401 16.7507 11.1846 16.9365 12 16.9365C12.8155 16.9365 13.9742 16.7506 14.5035 16.2069C14.6323 16.0784 14.8326 16.0784 14.9614 16.2069C15.0757 16.3356 15.0757 16.536 14.9614 16.6647ZM14.7323 14.6189C14.0456 14.6189 13.4878 14.0611 13.4878 13.3743C13.4878 12.6876 14.0456 12.1298 14.7323 12.1298C15.4192 12.1298 15.9771 12.6876 15.9771 13.3743C15.9771 14.0465 15.4192 14.6189 14.7323 14.6189Z" fill="white"/>
</svg>
