<svg width="24" height="24" viewBox="0 0 24 24" fill="none" xmlns="http://www.w3.org/2000/svg">
<rect width="24" height="24" rx="4" fill="#1F1F1F"/>
<g clip-path="url(#clip0_744_8417)">
<path d="M17.0695 7.57548C16.8896 7.42295 16.6071 7.40112 16.315 7.5184H16.3145C16.0073 7.64168 7.61792 11.2401 7.2764 11.3871C7.21428 11.4087 6.67178 11.6111 6.72766 12.062C6.77755 12.4685 7.21356 12.6369 7.26681 12.6563L9.39964 13.3866C9.54114 13.8577 10.0628 15.5955 10.1781 15.9667C10.2501 16.1982 10.3674 16.5023 10.5729 16.5649C10.7533 16.6344 10.9326 16.5709 11.0487 16.4797L12.3527 15.2703L14.4577 16.9119L14.5078 16.9419C14.6508 17.0052 14.7877 17.0369 14.9184 17.0369C15.0194 17.0369 15.1163 17.0179 15.2089 16.98C15.5242 16.8505 15.6504 16.55 15.6636 16.516L17.2359 8.34319C17.3319 7.90669 17.1985 7.68461 17.0695 7.57548ZM11.2806 13.6787L10.5611 15.5974L9.84165 13.1991L15.3578 9.12192L11.2806 13.6787Z" fill="#29B6F6"/>
</g>
<defs>
<clipPath id="clip0_744_8417">
<rect width="11.9916" height="11.9916" fill="white" transform="translate(6.00439 6.00415)"/>
</clipPath>
</defs>
</svg>
