<svg width="24" height="24" viewBox="0 0 24 24" fill="none" xmlns="http://www.w3.org/2000/svg">
<rect width="24" height="24" rx="4" fill="#03A9F4"/>
<path d="M16.4925 9.10519C16.162 9.25158 15.8065 9.34927 15.4315 9.39548C15.8127 9.16914 16.106 8.80814 16.2437 8.38169C15.8869 8.5908 15.4917 8.74444 15.0713 8.82538C14.7355 8.46938 14.2566 8.24854 13.7259 8.24854C12.7067 8.24854 11.8805 9.06746 11.8805 10.0773C11.8805 10.2202 11.8972 10.3593 11.9287 10.4945C10.3953 10.4175 9.03522 9.68853 8.12536 8.5823C7.96547 8.85261 7.87553 9.16914 7.87553 9.50316C7.87553 10.138 8.20056 10.6968 8.69621 11.0261C8.39367 11.0168 8.10887 10.9327 7.85954 10.7978C7.85954 10.8032 7.85954 10.8115 7.85954 10.8192C7.85954 11.7064 8.49585 12.4451 9.33926 12.6132C9.18512 12.6555 9.02223 12.6789 8.85435 12.6789C8.73518 12.6789 8.61901 12.6654 8.50659 12.6452C8.74143 13.3702 9.4227 13.9001 10.2299 13.9158C9.59833 14.4055 8.80288 14.6988 7.93799 14.6988C7.78859 14.6988 7.64245 14.6903 7.49805 14.6728C8.31523 15.1902 9.28555 15.4935 10.3271 15.4935C13.7209 15.4935 15.5776 12.7064 15.5776 10.2886C15.5776 10.2094 15.5751 10.1305 15.5714 10.0525C15.9336 9.7967 16.2459 9.47393 16.4925 9.10519Z" fill="white"/>
</svg>
