<svg width="26" height="150" viewBox="0 0 26 150" fill="none" xmlns="http://www.w3.org/2000/svg">
<path d="M13 0.5C16.072 0.5 18.94 2.683 21.073 5.797C23.197 8.9 24.5 12.803 24.5 16V91C24.5 94.22 23.401 98.38 21.384 101.727C19.362 105.082 16.495 107.5 13 107.5C9.95 107.5 7.081 105.096 4.937 101.717C2.807 98.36 1.5 94.202 1.5 91V16C1.5 12.803 2.803 8.9 4.927 5.797C7.06 2.683 9.928 0.5 13 0.5Z" fill="url(#paint0_linear_744_8353)" stroke="#306EE8"/>
<path d="M21 85.273V84C21 84 18.786 86.727 13 86.727C7.214 86.727 5 84 5 84V85.273C5 85.273 7.857 90 13 90C18.143 90 21 85.273 21 85.273Z" fill="#BACFF7"/>
<path d="M7 16.5C7 16.3674 7.05268 16.2402 7.14645 16.1464C7.24021 16.0527 7.36739 16 7.5 16C7.63261 16 7.75979 16.0527 7.85355 16.1464C7.94732 16.2402 8 16.3674 8 16.5V76.5C8 76.6326 7.94732 76.7598 7.85355 76.8536C7.75979 76.9473 7.63261 77 7.5 77C7.36739 77 7.24021 76.9473 7.14645 76.8536C7.05268 76.7598 7 76.6326 7 76.5V16.5ZM18 16.5C18 16.3674 18.0527 16.2402 18.1464 16.1464C18.2402 16.0527 18.3674 16 18.5 16C18.6326 16 18.7598 16.0527 18.8536 16.1464C18.9473 16.2402 19 16.3674 19 16.5V76.5C19 76.6326 18.9473 76.7598 18.8536 76.8536C18.7598 76.9473 18.6326 77 18.5 77C18.3674 77 18.2402 76.9473 18.1464 76.8536C18.0527 76.7598 18 76.6326 18 76.5V16.5Z" fill="#1D4596"/>
<path d="M24.5 34C24.5 29.373 15 29 13 29C11 29 1.5 29.373 1.5 34M20 103C18 98.373 14.217 98 13 98C11.783 98 8 98.373 6 103H20ZM24.5 68C24.5 63.373 15 63 13 63C11 63 1.5 63.373 1.5 68H24.5Z" stroke="#306EE8"/>
<path d="M22 37.5C22 37.2239 21.7761 37 21.5 37C21.2239 37 21 37.2239 21 37.5V44.5C21 44.7761 21.2239 45 21.5 45C21.7761 45 22 44.7761 22 44.5V37.5Z" fill="#8CAEF2"/>
<path d="M22 18.5C22 18.2239 21.7761 18 21.5 18C21.2239 18 21 18.2239 21 18.5V25.5C21 25.7761 21.2239 26 21.5 26C21.7761 26 22 25.7761 22 25.5V18.5Z" fill="#8CAEF2"/>
<path d="M22 71.5C22 71.2239 21.7761 71 21.5 71C21.2239 71 21 71.2239 21 71.5V78.5C21 78.7761 21.2239 79 21.5 79C21.7761 79 22 78.7761 22 78.5V71.5Z" fill="#8CAEF2"/>
<path d="M22 51.5C22 51.2239 21.7761 51 21.5 51C21.2239 51 21 51.2239 21 51.5V58.5C21 58.7761 21.2239 59 21.5 59C21.7761 59 22 58.7761 22 58.5V51.5Z" fill="#8CAEF2"/>
<path d="M5 37.5C5 37.2239 4.77614 37 4.5 37C4.22386 37 4 37.2239 4 37.5V44.5C4 44.7761 4.22386 45 4.5 45C4.77614 45 5 44.7761 5 44.5V37.5Z" fill="#8CAEF2"/>
<path d="M5 18.5C5 18.2239 4.77614 18 4.5 18C4.22386 18 4 18.2239 4 18.5V25.5C4 25.7761 4.22386 26 4.5 26C4.77614 26 5 25.7761 5 25.5V18.5Z" fill="#8CAEF2"/>
<path d="M5 51.5C5 51.2239 4.77614 51 4.5 51C4.22386 51 4 51.2239 4 51.5V58.5C4 58.7761 4.22386 59 4.5 59C4.77614 59 5 58.7761 5 58.5V51.5Z" fill="#8CAEF2"/>
<path d="M5 71.5C5 71.2239 4.77614 71 4.5 71C4.22386 71 4 71.2239 4 71.5V78.5C4 78.7761 4.22386 79 4.5 79C4.77614 79 5 78.7761 5 78.5V71.5Z" fill="#8CAEF2"/>
<path opacity="0.5" d="M11 139.4C11 125.35 8.937 97 5.5 97C2.462 97 0 125.35 0 139.4C0 145.76 2.462 150 5.5 150C8.538 150 11 144.97 11 139.4Z" fill="url(#paint1_linear_744_8353)"/>
<path opacity="0.5" d="M26 139.4C26 125.35 23.937 97 20.5 97C17.462 97 15 125.35 15 139.4C15 145.76 17.462 150 20.5 150C23.538 150 26 144.97 26 139.4Z" fill="url(#paint2_linear_744_8353)"/>
<defs>
<linearGradient id="paint0_linear_744_8353" x1="13" y1="-1.59805e-08" x2="13" y2="108" gradientUnits="userSpaceOnUse">
<stop stop-color="#0B1426"/>
<stop offset="1" stop-color="#1A4DB3"/>
</linearGradient>
<linearGradient id="paint1_linear_744_8353" x1="5.5" y1="150" x2="5.5" y2="97" gradientUnits="userSpaceOnUse">
<stop offset="0.115" stop-color="white" stop-opacity="0"/>
<stop offset="0.531" stop-color="#999999" stop-opacity="0.448"/>
<stop offset="1" stop-color="white" stop-opacity="0.4"/>
</linearGradient>
<linearGradient id="paint2_linear_744_8353" x1="20.5" y1="150" x2="20.5" y2="97" gradientUnits="userSpaceOnUse">
<stop offset="0.115" stop-color="white" stop-opacity="0"/>
<stop offset="0.531" stop-color="#999999" stop-opacity="0.448"/>
<stop offset="1" stop-color="white" stop-opacity="0.4"/>
</linearGradient>
</defs>
</svg>
