<svg width="41" height="40" viewBox="0 0 41 40" fill="none" xmlns="http://www.w3.org/2000/svg">
<path d="M14.0266 17.3405L20.5002 10.8669L26.9768 17.3433L30.7435 13.5766L20.5002 3.3335L10.2602 13.5735L14.0267 17.3402L14.0266 17.3405ZM3.8335 20.0002L7.6003 16.2329L11.3668 19.9994L7.60003 23.7662L3.8335 20.0002ZM14.0266 22.6604L20.5002 29.1336L26.9767 22.6573L30.7454 26.422L30.7435 26.424L20.5002 36.667L10.2602 26.4269L10.2548 26.4216L14.027 22.66L14.0266 22.6604ZM29.6335 20.0018L33.4003 16.235L37.1668 20.0016L33.4002 23.7684L29.6335 20.0018Z" fill="#F3BA2F"/>
<path d="M24.3202 19.9985H24.3218L20.4999 16.1763L17.675 19.0005L17.3504 19.3252L16.6811 19.9946L16.6758 19.9998L16.6811 20.0053L20.4999 23.8247L24.322 20.0025L24.3239 20.0004L24.3204 19.9985" fill="#F3BA2F"/>
</svg>
