<svg width="41" height="40" viewBox="0 0 41 40" fill="none" xmlns="http://www.w3.org/2000/svg">
<path d="M35.517 26.4185L33.4964 32.988L29.5298 31.9448L35.517 26.4185Z" fill="#E4761B" stroke="#E4761B" stroke-width="0.190386"/>
<path d="M29.5298 31.9448L33.3556 26.9042L35.517 26.4185L29.5298 31.9448Z" fill="#E4761B" stroke="#E4761B" stroke-width="0.190386"/>
<path d="M32.5439 21.4655L35.5168 26.4185L33.3555 26.9043L32.5439 21.4655ZM32.5439 21.4655L34.4569 20.1914L35.5168 26.4185L32.5439 21.4655Z" fill="#F6851B" stroke="#F6851B" stroke-width="0.190386"/>
<path d="M30.1094 17.7226L35.608 15.5566L35.3347 16.7431L30.1094 17.7226ZM35.1608 18.1685L30.1094 17.7226L35.3347 16.7431L35.1608 18.1685Z" fill="#763D16" stroke="#763D16" stroke-width="0.190386"/>
<path d="M35.1608 18.1685L34.4569 20.1911L30.1094 17.7226L35.1608 18.1685ZM36.2622 16.0583L35.3347 16.7431L35.608 15.5566L36.2622 16.0583ZM35.1608 18.1685L35.3347 16.7431L36.0717 17.3324L35.1608 18.1685Z" fill="#763D16" stroke="#763D16" stroke-width="0.190386"/>
<path d="M25.2651 30.3442L26.6398 30.7663L29.5299 31.9448L25.2651 30.3442Z" fill="#E2761B" stroke="#E2761B" stroke-width="0.190386"/>
<path d="M34.4571 20.1912L35.161 18.1686L35.7655 18.6145L34.4571 20.1912ZM34.4571 20.1912L28.7515 18.3836L30.1096 17.7227L34.4571 20.1912Z" fill="#763D16" stroke="#763D16" stroke-width="0.190386"/>
<path d="M31.4676 11.5195L30.1096 17.7227L28.7515 18.3837L31.4676 11.5195Z" fill="#763D16" stroke="#763D16" stroke-width="0.190386"/>
<path d="M35.608 15.5568L30.1094 17.7227L31.4675 11.5195L35.608 15.5568Z" fill="#763D16" stroke="#763D16" stroke-width="0.190386"/>
<path d="M31.4678 11.5194L37.2065 10.8823L35.6083 15.5566L31.4678 11.5194Z" fill="#763D16" stroke="#763D16" stroke-width="0.190386"/>
<path d="M34.4571 20.1914L32.5442 21.4655L28.7515 18.3838L34.4571 20.1914Z" fill="#F6851B" stroke="#F6851B" stroke-width="0.190386"/>
<path d="M36.9581 6.41504L37.2065 10.8823L31.4678 11.5194L36.9581 6.41504Z" fill="#763D16" stroke="#763D16" stroke-width="0.190386"/>
<path d="M36.9581 6.41504L25.4889 14.4338L25.3398 8.99507L36.9581 6.41504Z" fill="#E2761B" stroke="#E2761B" stroke-width="0.190386"/>
<path d="M16.8105 8.34229L25.34 8.99526L25.4891 14.434L16.8105 8.34229Z" fill="#F6851B" stroke="#F6851B" stroke-width="0.190386"/>
<path d="M28.7515 18.3837L25.4888 14.434L31.4677 11.5195L28.7515 18.3837Z" fill="#763D16" stroke="#763D16" stroke-width="0.190386"/>
<path d="M28.7512 18.3838L32.5439 21.4655L27.2192 22.0309L28.7512 18.3838Z" fill="#E4761B" stroke="#E4761B" stroke-width="0.190386"/>
<path d="M27.2195 22.0308L25.4888 14.4341L28.7515 18.3838L27.2195 22.0308Z" fill="#E4761B" stroke="#E4761B" stroke-width="0.190386"/>
<path d="M31.4677 11.5194L25.4888 14.4338L36.958 6.41504L31.4677 11.5194Z" fill="#763D16" stroke="#763D16" stroke-width="0.190386"/>
<path d="M16.8849 31.8173L19.5928 34.5327L15.9077 31.3076L16.8849 31.8173Z" fill="#C0AD9E" stroke="#C0AD9E" stroke-width="0.190386"/>
<path d="M29.5298 31.9449L30.8133 27.2547L33.3556 26.9043L29.5298 31.9449Z" fill="#CD6116" stroke="#CD6116" stroke-width="0.190386"/>
<path d="M5.90381 18.7497L10.5909 14.0117L6.50832 18.1844L5.90381 18.7497Z" fill="#E2761B" stroke="#E2761B" stroke-width="0.190386"/>
<path d="M33.3561 26.9042L30.8138 27.2545L32.5445 21.4654L33.3561 26.9042ZM25.4891 14.434L20.9262 14.2907L16.8105 8.34229L25.4891 14.434Z" fill="#F6851B" stroke="#F6851B" stroke-width="0.190386"/>
<path d="M32.5444 21.4653L30.8136 27.2545L30.6729 24.4276L32.5444 21.4653Z" fill="#E4751F" stroke="#E4751F" stroke-width="0.190386"/>
<path d="M27.2192 22.0307L32.5439 21.4653L30.6724 24.4276L27.2192 22.0307Z" fill="#CD6116" stroke="#CD6116" stroke-width="0.190386"/>
<path d="M20.9258 14.2905L25.4886 14.4339L27.2194 22.0306L20.9258 14.2905Z" fill="#F6851B" stroke="#F6851B" stroke-width="0.190386"/>
<path d="M20.9259 14.2907L8.61197 3.3335L16.8102 8.34226L20.9259 14.2907ZM16.8019 33.4816L6.10282 36.6668L3.96631 28.8232L16.8019 33.4816Z" fill="#E4761B" stroke="#E4761B" stroke-width="0.190386"/>
<path d="M7.49414 20.709L11.5353 17.6592L14.9222 18.4157L7.49414 20.709Z" fill="#763D16" stroke="#763D16" stroke-width="0.190386"/>
<path d="M14.9221 18.4155L11.5352 17.659L13.3487 10.4604L14.9221 18.4155Z" fill="#763D16" stroke="#763D16" stroke-width="0.190386"/>
<path d="M6.5083 18.1847L11.5349 17.6592L7.49374 20.709L6.5083 18.1847Z" fill="#763D16" stroke="#763D16" stroke-width="0.190386"/>
<path d="M30.6724 24.4276L28.5856 23.4163L27.2192 22.0308L30.6724 24.4276Z" fill="#CD6116" stroke="#CD6116" stroke-width="0.190386"/>
<path d="M6.50843 18.1846L6.15234 16.377L11.535 17.659L6.50843 18.1846Z" fill="#763D16" stroke="#763D16" stroke-width="0.190386"/>
<path d="M28.1553 25.6939L28.5859 23.4165L30.6727 24.4278L28.1553 25.6939Z" fill="#233447" stroke="#233447" stroke-width="0.190386"/>
<path d="M30.8135 27.2546L28.1553 25.6939L30.6727 24.4277L30.8135 27.2546Z" fill="#F6851B" stroke="#F6851B" stroke-width="0.190386"/>
<path d="M11.535 17.659L6.15227 16.377L5.71338 14.8561L11.535 17.659ZM13.3485 10.4604L11.535 17.659L5.71338 14.8561L13.3485 10.4604ZM13.3485 10.4604L20.9257 14.2907L14.9219 18.4155L13.3485 10.4604Z" fill="#763D16" stroke="#763D16" stroke-width="0.190386"/>
<path d="M14.9219 18.4154L20.9256 14.2905L23.6004 22.1501L14.9219 18.4154ZM23.6004 22.1501L15.3028 21.9828L14.9219 18.4154L23.6004 22.1501Z" fill="#E4761B" stroke="#E4761B" stroke-width="0.190386"/>
<path d="M7.49414 20.7087L14.9222 18.4154L15.3032 21.9828L7.49414 20.7087ZM27.2196 22.0306L23.6008 22.1501L20.926 14.2905L27.2196 22.0306Z" fill="#F6851B" stroke="#F6851B" stroke-width="0.190386"/>
<path d="M28.5856 23.4163L28.155 25.6938L27.2192 22.0308L28.5856 23.4163Z" fill="#CD6116" stroke="#CD6116" stroke-width="0.190386"/>
<path d="M8.6123 3.3335L20.9262 14.2907L13.3491 10.4604L8.6123 3.3335Z" fill="#763D16" stroke="#763D16" stroke-width="0.190386"/>
<path d="M3.96631 28.8233L14.3507 28.4092L16.8019 33.4816L3.96631 28.8233Z" fill="#E4761B" stroke="#E4761B" stroke-width="0.190386"/>
<path d="M16.8018 33.4818L14.3506 28.4093L19.4517 28.1704L16.8018 33.4818Z" fill="#CD6116" stroke="#CD6116" stroke-width="0.190386"/>
<path d="M28.1552 25.6939L30.8135 27.2546L32.2792 30.5752L28.1552 25.6939ZM15.3031 21.9831L3.96631 28.8233L7.49403 20.709L15.3031 21.9831ZM14.3507 28.4093L3.96631 28.8233L15.3031 21.9831L14.3507 28.4093ZM27.2195 22.0309L27.8985 24.4038L24.6192 24.587L27.2195 22.0309ZM24.6192 24.587L23.6007 22.1503L27.2195 22.0309L24.6192 24.587Z" fill="#F6851B" stroke="#F6851B" stroke-width="0.190386"/>
<path d="M19.5925 34.5326L16.8018 33.4814L26.5071 35.0502L19.5925 34.5326Z" fill="#C0AD9E" stroke="#C0AD9E" stroke-width="0.190386"/>
<path d="M7.49377 20.7089L5.90381 18.7499L6.50833 18.1846L7.49377 20.7089Z" fill="#763D16" stroke="#763D16" stroke-width="0.190386"/>
<path d="M27.6085 33.8876L26.5071 35.0502L16.8018 33.4814L27.6085 33.8876Z" fill="#D7C1B3" stroke="#D7C1B3" stroke-width="0.190386"/>
<path d="M28.1302 31.0371L16.8018 33.4818L19.4517 28.1704L28.1302 31.0371Z" fill="#E4761B" stroke="#E4761B" stroke-width="0.190386"/>
<path d="M16.8018 33.4818L28.1302 31.0371L27.6085 33.8879L16.8018 33.4818Z" fill="#D7C1B3" stroke="#D7C1B3" stroke-width="0.190386"/>
<path d="M5.71347 14.856L5.34082 8.73242L13.3486 10.4604L5.71347 14.856ZM6.50845 18.1846L5.40707 17.1096L6.15236 16.377L6.50845 18.1846Z" fill="#763D16" stroke="#763D16" stroke-width="0.190386"/>
<path d="M21.7456 23.7271L23.6006 22.1504L23.3356 26.0045L21.7456 23.7271Z" fill="#CD6116" stroke="#CD6116" stroke-width="0.190386"/>
<path d="M23.6005 22.1504L21.7455 23.7271L19.0459 25.0728L23.6005 22.1504Z" fill="#CD6116" stroke="#CD6116" stroke-width="0.190386"/>
<path d="M32.2792 30.5752L31.7741 30.2169L28.1553 25.6938L32.2792 30.5752Z" fill="#F6851B" stroke="#F6851B" stroke-width="0.190386"/>
<path d="M19.0463 25.0726L15.3032 21.9829L23.6008 22.1501L19.0463 25.0726Z" fill="#CD6116" stroke="#CD6116" stroke-width="0.190386"/>
<path d="M23.3354 26.0045L23.6004 22.1504L24.619 24.5871L23.3354 26.0045Z" fill="#E4751F" stroke="#E4751F" stroke-width="0.190386"/>
<path d="M5.04297 15.4611L5.71373 14.856L6.15263 16.3769L5.04297 15.4611Z" fill="#763D16" stroke="#763D16" stroke-width="0.190386"/>
<path d="M23.3355 26.0045L19.0459 25.0728L21.7455 23.7271L23.3355 26.0045Z" fill="#233447" stroke="#233447" stroke-width="0.190386"/>
<path d="M13.3486 10.4604L5.34082 8.73244L8.61183 3.3335L13.3486 10.4604Z" fill="#763D16" stroke="#763D16" stroke-width="0.190386"/>
<path d="M26.507 35.0503L26.9624 36.2448L19.5923 34.5327L26.507 35.0503Z" fill="#C0AD9E" stroke="#C0AD9E" stroke-width="0.190386"/>
<path d="M19.4517 28.1704L19.0459 25.0728L23.3355 26.0044L19.4517 28.1704Z" fill="#F6851B" stroke="#F6851B" stroke-width="0.190386"/>
<path d="M15.3032 21.9829L19.0463 25.0726L19.452 28.1702L15.3032 21.9829Z" fill="#E4751F" stroke="#E4751F" stroke-width="0.190386"/>
<path d="M24.6191 24.5868L27.8984 24.4037L31.7739 30.2167L24.6191 24.5868ZM15.3029 21.9829L19.4517 28.1702L14.3506 28.4091L15.3029 21.9829Z" fill="#F6851B" stroke="#F6851B" stroke-width="0.190386"/>
<path d="M24.619 24.5869L28.6933 30.5512L23.3354 26.0043L24.619 24.5869Z" fill="#E4751F" stroke="#E4751F" stroke-width="0.190386"/>
<path d="M23.3354 26.0044L28.6933 30.5513L28.1302 31.037L23.3354 26.0044Z" fill="#F6851B" stroke="#F6851B" stroke-width="0.190386"/>
<path d="M28.1302 31.037L19.4517 28.1703L23.3355 26.0043L28.1302 31.037ZM31.7739 30.2168L28.6933 30.5512L24.619 24.5869L31.7739 30.2168Z" fill="#F6851B" stroke="#F6851B" stroke-width="0.190386"/>
<path d="M32.5856 33.0195L31.2606 35.5757L26.9628 36.2446L32.5856 33.0195ZM26.9628 36.2446L26.5073 35.0501L27.6087 33.8875L26.9628 36.2446Z" fill="#C0AD9E" stroke="#C0AD9E" stroke-width="0.190386"/>
<path d="M27.6088 33.8875L28.4204 33.5769L26.9629 36.2446L27.6088 33.8875ZM26.9629 36.2446L28.4204 33.5769L32.5857 33.0195L26.9629 36.2446Z" fill="#C0AD9E" stroke="#C0AD9E" stroke-width="0.190386"/>
<path d="M31.7743 30.2168L32.7929 30.814L29.6958 31.1724L31.7743 30.2168Z" fill="#161616" stroke="#161616" stroke-width="0.190386"/>
<path d="M29.6954 31.1724L28.6934 30.5512L31.7739 30.2168L29.6954 31.1724ZM29.3393 31.6422L33.1072 31.2042L32.5854 33.0198L29.3393 31.6422Z" fill="#161616" stroke="#161616" stroke-width="0.190386"/>
<path d="M32.5858 33.0198L28.4204 33.5772L29.3396 31.6422L32.5858 33.0198ZM28.4204 33.5772L27.6089 33.8878L28.1306 31.037L28.4204 33.5772ZM28.1306 31.037L28.6937 30.5513L29.6957 31.1724L28.1306 31.037ZM32.7928 30.8141L33.1075 31.2042L29.3396 31.6422L32.7928 30.8141Z" fill="#161616" stroke="#161616" stroke-width="0.190386"/>
<path d="M29.3394 31.6421L29.6955 31.1723L32.7926 30.814L29.3394 31.6421ZM28.1304 31.0369L29.3394 31.6421L28.4202 33.5772L28.1304 31.0369Z" fill="#161616" stroke="#161616" stroke-width="0.190386"/>
<path d="M29.6955 31.1725L29.3394 31.6423L28.1304 31.0371L29.6955 31.1725Z" fill="#161616" stroke="#161616" stroke-width="0.190386"/>
</svg>
