<svg width="24" height="24" viewBox="0 0 24 24" fill="none" xmlns="http://www.w3.org/2000/svg">
<path fill-rule="evenodd" clip-rule="evenodd" d="M11.5267 4H20.4728C20.7628 4 21 4.53375 21 5.18625V5.31375C21 5.96625 20.7628 6.5 20.4728 6.5H11.5267C11.2367 6.5 11 5.96625 11 5.31375V5.18625C11 4.53375 11.2367 4 11.5267 4ZM3.26333 10.25H7.73639C7.88139 10.25 8 10.7838 8 11.4363V11.5637C8 12.2163 7.88139 12.75 7.73639 12.75H3.26333C3.11833 12.75 3 12.2163 3 11.5637V11.4363C3 10.7838 3.11833 10.25 3.26333 10.25ZM11.5267 10.25H20.4728C20.7628 10.25 21 10.7838 21 11.4363V11.5637C21 12.2163 20.7628 12.75 20.4728 12.75H11.5267C11.2367 12.75 11 12.2163 11 11.5637V11.4363C11 10.7838 11.2367 10.25 11.5267 10.25ZM12.4728 16.5H3.52667C3.23667 16.5 3 17.0337 3 17.6862V17.8138C3 18.4663 3.23667 19 3.52667 19H12.4728C12.7628 19 13 18.4663 13 17.8138V17.6862C13 17.0337 12.7628 16.5 12.4728 16.5Z" fill="#FBFEFF"/>
<mask id="mask0_744_8570" style="mask-type:alpha" maskUnits="userSpaceOnUse" x="5" y="6" width="14" height="12">
<path fill-rule="evenodd" clip-rule="evenodd" d="M10.9345 6.375H18.315C18.5543 6.375 18.75 6.77531 18.75 7.26469V7.36031C18.75 7.84969 18.5543 8.25 18.315 8.25H10.9345C10.6953 8.25 10.5 7.84969 10.5 7.36031V7.26469C10.5 6.77531 10.6953 6.375 10.9345 6.375ZM5.645 15.75H12.3546C12.5721 15.75 12.75 16.1503 12.75 16.6397V16.7353C12.75 17.2247 12.5721 17.625 12.3546 17.625H5.645C5.4275 17.625 5.25 17.2247 5.25 16.7353V16.6397C5.25 16.1503 5.4275 15.75 5.645 15.75Z" fill="white"/>
</mask>
<g mask="url(#mask0_744_8570)">
</g>
</svg>
