<svg width="41" height="40" viewBox="0 0 41 40" fill="none" xmlns="http://www.w3.org/2000/svg">
<path d="M9.17969 22.4908L9.98246 22.1442L19.8712 17.8384L30.5627 22.4908L26.5488 30.7922L16.7331 32.1789L9.34389 24.2058L9.17969 22.4908Z" fill="#133444"/>
<path d="M28.3555 17.3824C26.5857 15.2477 24.0862 13.8793 21.3494 13.5144L21.167 13.4962C20.3095 13.3867 19.452 13.3867 18.5945 13.4962L18.412 13.5144C15.6753 13.8793 13.1757 15.2659 11.406 17.3824L10.9681 18.1122L10.2201 19.3346L9.67272 20.2286C9.67272 20.2468 9.65448 20.2833 9.63623 20.3015V20.3198L10.8221 21.0313L18.3938 25.5196L19.8534 26.3771V15.6673L18.3938 16.3241V14.7186L19.8534 14.0618L21.313 14.7186L28.7569 18.1122L28.3555 17.3824Z" fill="#C42370"/>
<path d="M30.8916 25.154C30.8733 28.6753 29.286 31.9959 26.5675 34.2218C25.5276 35.0793 24.3599 35.7179 23.0827 36.1558C22.0428 36.5025 20.9663 36.6667 19.8716 36.6667C13.7779 36.6667 8.8335 31.2479 8.8335 25.154C8.8335 24.26 8.94297 23.366 9.1619 22.4902L19.8534 28.8213L30.5449 22.4902C30.7821 23.366 30.9098 24.26 30.8916 25.154Z" fill="#1C4D6B"/>
<path d="M18.5946 13.4955L19.8717 14.0611L18.4121 14.7362V13.4043L18.5946 13.4955Z" fill="black"/>
<path d="M18.4121 16.3421L19.8717 15.667V26.395L18.4121 25.5192V16.3421Z" fill="black"/>
<path d="M19.8716 15.667V26.395L30.1252 20.3377L19.8716 15.667Z" fill="#1D4259"/>
<path d="M19.8716 3.3335V15.6671L30.1252 20.3378L19.8716 3.3335Z" fill="#4B6B9A"/>
<path d="M19.8718 15.6671V26.3769L18.4122 25.5194L9.63641 20.3378H9.61816H9.63641C9.63641 20.3196 9.65465 20.2831 9.6729 20.2648L10.95 18.1302L18.394 14.7549V16.3422L19.8718 15.6671Z" fill="#343535"/>
<path d="M19.8716 15.667V26.395L18.412 25.5192L9.63623 20.3377L9.65448 20.3194L18.412 16.3421L19.8716 15.667Z" fill="#3E5578"/>
<path d="M19.8716 3.3335V15.6671L9.63623 20.3378L19.8716 3.3335Z" fill="#6DB2D8"/>
<path d="M15.73 35.7915C15.8759 35.8644 16.0401 35.9191 16.1861 35.9738C16.0401 35.9191 15.8942 35.8462 15.73 35.7915Z" fill="#335F8A"/>
<path d="M16.1865 35.9736C16.3325 36.0284 16.4967 36.1013 16.6609 36.1378C16.5149 36.1013 16.3507 36.0466 16.1865 35.9736Z" fill="#335F8A"/>
<path d="M17.0801 36.2651C17.2078 36.3016 17.3173 36.3381 17.445 36.3564C17.3173 36.3381 17.1895 36.3016 17.0801 36.2651Z" fill="#335F8A"/>
<path d="M9.18046 22.4902L19.8719 28.8212C19.726 29.7882 19.4706 30.7187 19.1057 31.6309C18.2481 33.7109 16.5331 35.9003 13.1761 34.2217C10.4576 31.9958 8.8703 28.6753 8.85205 25.154C8.85205 24.26 8.96152 23.366 9.18046 22.4902Z" fill="#6DB2D8"/>
<path d="M26.5674 34.2221L26.5309 34.2403C26.4762 34.2768 26.4215 34.3315 26.3667 34.368L26.3485 34.3863C26.2938 34.441 26.2208 34.4775 26.166 34.5322C26.0931 34.587 26.0383 34.6417 25.9654 34.6782C25.8924 34.7147 25.8194 34.7694 25.7647 34.8242C25.6917 34.8789 25.6369 34.8971 25.5822 34.9519L25.5457 34.9701C25.4727 35.0066 25.418 35.0431 25.3633 35.0978C25.3633 35.0978 25.345 35.0978 25.345 35.1161C25.272 35.1526 25.2173 35.1891 25.1443 35.2438C25.0714 35.2803 24.9984 35.3168 24.9254 35.3715C24.8524 35.408 24.7794 35.4445 24.7065 35.481L24.4875 35.5904C24.4145 35.6269 24.3416 35.6634 24.2686 35.6999C24.1956 35.7364 24.1226 35.7729 24.0496 35.8094C23.9037 35.8824 23.7395 35.9371 23.5935 35.9918C23.4476 36.0466 23.2834 36.1013 23.1191 36.156C23.0644 36.1743 22.9914 36.1925 22.9367 36.2108L22.7178 36.2837C22.59 36.3202 22.4806 36.3567 22.3529 36.375C22.3164 36.3932 22.2616 36.3932 22.2069 36.4115L22.1339 36.4297L21.9332 36.4662C21.8603 36.4844 21.8238 36.4844 21.7508 36.5027C21.696 36.5209 21.6413 36.5209 21.5866 36.5392C21.5318 36.5392 21.4589 36.5574 21.4041 36.5757C21.3676 36.5757 21.3494 36.5757 21.3129 36.5939L21.1669 36.6122H21.094C21.0392 36.6122 20.9845 36.6304 20.948 36.6304C20.8933 36.6304 20.8203 36.6486 20.7656 36.6486C20.7108 36.6486 20.6743 36.6486 20.6196 36.6486C20.5649 36.6486 20.5284 36.6486 20.4919 36.6486C20.4372 36.6486 20.3824 36.6486 20.3459 36.6486C20.3094 36.6486 20.2 36.6486 20.1452 36.6486H19.7074C19.6344 36.6486 19.5614 36.6486 19.5067 36.6486C19.4519 36.6486 19.3972 36.6486 19.3607 36.6486C19.3242 36.6486 19.2695 36.6486 19.233 36.6486C19.1965 36.6486 19.1418 36.6486 19.087 36.6486C19.0323 36.6486 18.9593 36.6304 18.9046 36.6304C18.8498 36.6304 18.7951 36.6304 18.7586 36.6122H18.6856C18.6492 36.6122 18.5944 36.5939 18.5397 36.5939C18.5032 36.5939 18.4849 36.5939 18.4485 36.5757C18.3937 36.5757 18.3207 36.5574 18.266 36.5392C18.2113 36.5392 18.1565 36.5209 18.1018 36.5027C18.0471 36.5027 17.9741 36.4844 17.9194 36.4662C17.8646 36.448 17.7916 36.4297 17.7187 36.4297L17.6457 36.4115C17.5909 36.4115 17.5362 36.3932 17.4997 36.3932C17.372 36.3567 17.2443 36.3202 17.1348 36.302L16.9159 36.229C16.8429 36.2108 16.7882 36.1925 16.7334 36.1743C16.5692 36.1195 16.4233 36.0648 16.2591 36.0101C16.0949 35.9553 15.9489 35.8824 15.8029 35.8276C15.73 35.7911 15.657 35.7547 15.584 35.7182L15.3651 35.6087L15.1461 35.4992C15.0732 35.4627 15.0002 35.4262 14.9272 35.3898C14.8542 35.3533 14.7812 35.3168 14.7083 35.262C14.6353 35.2256 14.5805 35.1891 14.5076 35.1343L14.4893 35.1161C14.4163 35.0796 14.3616 35.0431 14.3069 34.9884L14.2704 34.9701C14.2156 34.9336 14.1427 34.8971 14.0879 34.8424C14.0332 34.8059 13.942 34.7512 13.8872 34.6964C13.8143 34.6417 13.7413 34.6052 13.6865 34.5505L13.5041 34.4045L13.4858 34.3863C13.4311 34.3498 13.3764 34.2951 13.3216 34.2586L13.2852 34.2403C16.624 35.9006 18.3572 33.7112 19.2147 31.6496C19.5796 30.7556 19.8351 29.8068 19.981 28.8398C20.127 29.8068 20.3824 30.7373 20.7473 31.6496C21.4954 33.693 23.2286 35.8824 26.5674 34.2221Z" fill="#529BBA"/>
<path d="M22.3164 36.3744C22.4441 36.3379 22.5718 36.3014 22.6813 36.2832C22.5718 36.3014 22.4441 36.3379 22.3164 36.3744Z" fill="#335F8A"/>
<path d="M23.083 36.1378C23.2472 36.0831 23.3932 36.0284 23.5574 35.9736C23.4114 36.0466 23.2472 36.1013 23.083 36.1378Z" fill="#335F8A"/>
<path d="M23.5571 35.9738C23.7031 35.9191 23.8673 35.8462 24.0132 35.7915C23.8673 35.8462 23.7213 35.9191 23.5571 35.9738Z" fill="#335F8A"/>
<path d="M30.8915 25.154C30.8733 28.6753 29.286 31.9959 26.5675 34.2218C23.2287 35.8821 21.4954 33.6927 20.6379 31.631C20.273 30.737 20.0175 29.7882 19.8716 28.8213L30.5631 22.4902C30.7821 23.366 30.8915 24.26 30.8915 25.154Z" fill="#4B6B9A"/>
</svg>
