<svg width="41" height="40" viewBox="0 0 41 40" fill="none" xmlns="http://www.w3.org/2000/svg">
<g clip-path="url(#clip0_744_4461)">
<path d="M40.5 20C40.5 8.9543 31.5457 0 20.5 0C9.4543 0 0.5 8.9543 0.5 20C0.5 31.0457 9.4543 40 20.5 40C31.5457 40 40.5 31.0457 40.5 20Z" fill="url(#paint0_radial_744_4461)"/>
<path d="M13.7195 14.4163C17.4643 10.7499 23.5358 10.7499 27.2805 14.4163L27.7312 14.8576C27.9185 15.0409 27.9185 15.3381 27.7312 15.5215L26.1895 17.0309C26.0959 17.1226 25.9441 17.1226 25.8505 17.0309L25.2303 16.4237C22.6178 13.8659 18.3822 13.8659 15.7698 16.4237L15.1056 17.074C15.012 17.1657 14.8602 17.1657 14.7666 17.074L13.2249 15.5645C13.0376 15.3812 13.0376 15.084 13.2249 14.9007L13.7195 14.4163ZM30.469 17.5381L31.8411 18.8815C32.0283 19.0648 32.0283 19.3621 31.8411 19.5454L25.6541 25.6031C25.4668 25.7864 25.1633 25.7864 24.976 25.6031C24.976 25.6031 24.976 25.6031 24.976 25.6031L20.5848 21.3038C20.538 21.2579 20.4621 21.2579 20.4153 21.3038C20.4153 21.3038 20.4153 21.3038 20.4153 21.3038L16.0242 25.6031C15.837 25.7864 15.5334 25.7864 15.3462 25.6031C15.3462 25.6031 15.3462 25.6031 15.3462 25.6031L9.15898 19.5453C8.97175 19.362 8.97175 19.0648 9.15898 18.8814L10.5311 17.538C10.7184 17.3547 11.0219 17.3547 11.2092 17.538L15.6004 21.8374C15.6472 21.8832 15.7231 21.8832 15.7699 21.8374C15.7699 21.8374 15.7699 21.8374 15.7699 21.8374L20.1609 17.538C20.3482 17.3547 20.6517 17.3547 20.839 17.538C20.839 17.538 20.839 17.538 20.839 17.538L25.2302 21.8374C25.277 21.8832 25.3529 21.8832 25.3997 21.8374L29.7909 17.5381C29.9781 17.3548 30.2817 17.3548 30.469 17.5381Z" fill="white"/>
</g>
<defs>
<radialGradient id="paint0_radial_744_4461" cx="0" cy="0" r="1" gradientUnits="userSpaceOnUse" gradientTransform="translate(0.5 20) scale(40)">
<stop stop-color="#5D9DF6"/>
<stop offset="1" stop-color="#006FFF"/>
</radialGradient>
<clipPath id="clip0_744_4461">
<rect width="40" height="40" fill="white" transform="translate(0.5)"/>
</clipPath>
</defs>
</svg>
